# xmcd
#
# Track frame offsets:
#	150
#	8774
#	16039
#	27154
#	38143
#	51375
#	59662
#	68093
#	78469
#	89911
#	98828
#	107382
#	116528
#	124812
#	136743
#	145824
#	156693
#	167038
#	174328
#	187600
#
# Disc length: 2678 seconds
#
# Revision: 1
# Processed by: cddbd v1.5PL3 Copyright (c) Steve Scherf et al.
# Submitted via: audiograbber 1.82.02
#
DISCID=060a7414
DTITLE=Chuck Ackley - Chuck
DYEAR=2003
DGENRE=Country
TTITLE0=Freight Train
TTITLE1=Love Letters
TTITLE2=Have I Told You
TTITLE3=Louisville
TTITLE4=Waltz Across Texas
TTITLE5=Waiting For a Train
TTITLE6=Learning To Smile
TTITLE7=My Life Has Been a Pleasure
TTITLE8=Look At Us
TTITLE9=Cotton Jenny
TTITLE10=When the Roll
TTITLE11=Church In the Wildwood
TTITLE12=River Of Jordan
TTITLE13=A Golden Deed
TTITLE14=Using My Bible
TTITLE15=I'd Rather Have Jesus
TTITLE16=Sweet By and By
TTITLE17=Hallelujah I'm Ready
TTITLE18=Scarlet Robe
TTITLE19=Gone
EXTD=20 of Chuck's Best
EXTT0=
EXTT1=
EXTT2=
EXTT3=
EXTT4=
EXTT5=
EXTT6=
EXTT7=
EXTT8=
EXTT9=
EXTT10=
EXTT11=
EXTT12=
EXTT13=
EXTT14=
EXTT15=
EXTT16=
EXTT17=
EXTT18=
EXTT19=
PLAYORDER=
